PathFileType	4	(X/Y/Z)	/home/abdul/Desktop/myosuite/custom_workspace/IK/output/S13_12_3.trc
DataRate	CameraRate	NumFrames	NumMarkers	Units	OrigDataRate	OrigDataStartFrame	OrigNumFrames
200.0	200.0	28	3	mm	200.0	954	1525
Frame#	Time	V_Shoulder			V_Elbow			V_Wrist		
		X1	Y1	Z1	X2	Y2	Z2	X3	Y3	Z3

954	4.765	-81.30968241701586	611.083464708228	338.91979010341015	-175.7385179822241	464.5737471530764	31.746580965584567	-92.88100999990458	209.45274766984585	62.255448318207314
955	4.77	-81.31669456427619	611.0728020505343	338.9118531223476	-175.72890409828335	464.6189954546204	31.69752358959007	-92.930709209388	209.46756486011552	62.070736384275506
956	4.775	-81.32435826856272	611.062737589109	338.9038505612245	-175.719074685764	464.6647120968154	31.648436499426083	-92.98090261241416	209.4821045486524	61.88434499847149
957	4.78	-81.33266842021168	611.0532714382795	338.89578630342595	-175.70895081552493	464.71081583230927	31.599342744708792	-93.03146482820249	209.4963015263893	61.696368080079026
958	4.785	-81.34161897231665	611.0444027870423	338.88766432439826	-175.69845738731536	464.75722659329614	31.55026544283671	-93.0822749009859	209.5100938053443	61.50690679661425
959	4.79	-81.35120294479364	611.0361299257805	338.87948868908296	-175.6875232841952	464.80386570809594	31.501227739147097	-93.13321654655303	209.5234227383864	61.31606927724144
960	4.795	-81.36141243067775	611.0284502750156	338.8712635489653	-175.6760815142083	464.8506561125771	31.452252766003074	-93.18417838273362	209.53623312961307	61.12397030547015
961	4.8	-81.37223860464927	611.0213604160655	338.8629931387413	-175.6640693390039	464.8975225557932	31.40336360094056	-93.23505414347156	209.5484733350073	60.93073099189078
962	4.805	-81.38367173378133	611.0148561234809	338.8546817726078	-175.65142838914534	464.94439179923484	31.354583224007975	-93.28574287618665	209.56009535308254	60.73647842776406
963	4.81	-81.39570119049462	611.0089323991277	338.84633384018304	-175.63810476588554	464.99119280913044	31.30593447443453	-93.33614912218223	209.5710549052656	60.54134532033842
964	4.815	-81.40831546769952	611.003583507779	338.83795380206374	-175.62404912923256	465.0378569412613	31.257440006765133	-93.3861830799099	209.5813115058095	60.34546961082626
965	4.82	-81.4215021960995	610.9988030140809	338.8295461850307	-175.60921677216888	465.08431811779093	31.209122246601726	-93.43576075095541	209.5908285210735	60.148994076027066
966	4.825	-81.43524816362425	610.9945838207522	338.8211155769109	-175.5935676809296	465.1305129956429	31.16100334609169	-93.48480406866155	209.59957321805018	59.952065914640755
967	4.83	-81.4495393369548	610.9909182078808	338.81266662110846	-175.57706658128546	465.17638112599843	31.11310513930454	-93.53324100935221	209.60751680206448	59.75483631936912
968	4.835	-81.46436088509766	610.9877978731735	338.80420401081716	-175.5596829708163	465.22186510451934	31.06544909763806	-93.58100568616977	209.61463444361345	59.55746003595655
969	4.84	-81.47969720495867	610.9852139730208	338.7957324829293	-175.54139113719938	465.2669107119397	31.018056285394394	-93.62803842558176	209.62090529435915	59.36009491037291
970	4.845	-81.49553194886279	610.9831571642341	338.78725681165366	-175.52217016257532	465.3114670447035	30.970947315665953	-93.67428582665546	209.62631249233073	59.16290142539124
971	4.85	-81.51184805395967	610.9816176463187	338.7787818018608	-175.50200391409157	465.3554866353656	30.9241423066693	-93.71970080323862	209.63084315643243	58.966042227861365
972	4.855	-81.52862777344994	610.9805852041409	338.77031228217055	-175.48088102075997	465.3989255625055	30.877660838664077	-93.76424260922109	209.63448837039525	58.76968164802565
973	4.86	-81.5458527095626	610.9800492508533	338.7618530978005	-175.45879483679852	465.44174354994084	30.831521911591743	-93.80787684708662	209.63724315634784	58.5739852122672
974	4.865	-81.56350384820799	610.979998870943	338.753409103194	-175.43574339166335	465.4839040550613	30.785743903566996	-93.85057545999553	209.63910643821959	58.37911915072037
975	4.87	-81.5815615952272	610.9804228632673	338.7449851544465	-175.41172932700735	465.5253743461368	30.740344530352253	-93.89231670766726	209.6400809952229	58.18524990121154
976	4.875	-81.60000581415296	610.9813097839502	338.73658610155053	-175.38675982083492	465.5661255684898	30.69534080594313	-93.9330851263577	209.64017340569274	57.99254361103141
977	4.88	-81.61881586539396	610.982647989008	338.7282167804794	-175.36084649915122	465.6061327994498	30.65074900439	-93.97287147325	209.63939398159255	57.80116563807063
978	4.885	-81.6379706467495	610.9844256765801	338.719882005131	-175.33400533543326	465.6453750920416	30.606584622977913	-94.0116726555975	209.63775669402037	57.61128005287645
979	4.89	-81.65744863515819	610.9866309286476	338.7115865591545	-175.30625653827806	465.68383550738633	30.562862346883975	-94.04949164497611	209.63527909007294	57.42304914320978
980	4.895	-81.67722792958001	610.9892517521168	338.7033351876794	-175.27762442760746	465.72150113582575	30.519596015428135	-94.08633737701888	209.6319822014471	57.23663292269872
981	4.9	-81.69728629490851	610.9922761191607	338.6951325889726	-175.24813729983475	465.75836310680427	30.476798590029855	-94.12222463701988	209.6278904451727	57.05218864519702
